<?xml version="1.0" encoding="utf-8"?>

<!-- Uploaded to: SVG Repo, www.svgrepo.com, Generator: SVG Repo Mixer Tools -->
<svg height="800px" width="800px" version="1.1" id="Layer_1" xmlns="http://www.w3.org/2000/svg" xmlns:xlink="http://www.w3.org/1999/xlink" 
	 viewBox="0 0 100 100" enable-background="new 0 0 100 100" xml:space="preserve">
<g>
	<path fill="#F1B57D" d="M49.524,94.491c0,0,5.88-34.885,44.97-34.885v34.885H49.524z"/>
	<path fill="#6AC9CC" d="M28.443,25.424c0,0,3.338-19.915-22.9-19.915C5.543,5.509,3.638,24.906,28.443,25.424z"/>
	<path fill="#6AC9CC" d="M28.443,25.424c0,0,2.404-19.915,27.294-19.915C55.737,5.509,56.735,21.967,28.443,25.424z"/>
	<path fill="#6AC9CC" d="M28.443,25.424c0,0-22.933-2.075-22.933,27.695C5.509,53.119,27.283,45.962,28.443,25.424z"/>
	<path fill="#F2C6A1" d="M31,25.065l-0.004,0.001c-0.823,0.132-1.673,0.252-2.552,0.359c-0.062,1.103-0.187,2.166-0.362,3.193
		l0.362,0.092c15.836,16.29,30.83,45.89,30.83,45.89c4.462-5.281,10.872-10.251,19.999-12.933l0-0.001
		C58.153,39.626,31,25.065,31,25.065z"/>
	<path fill="#FEE36F" d="M18.628,45.222c-3.398,3.071-6.988,5.139-9.552,6.386c-0.248,0.825-0.385,1.698-0.385,2.603
		c0,4.99,4.044,9.035,9.034,9.035s9.034-4.045,9.034-9.035C26.758,49.527,23.193,45.676,18.628,45.222z"/>
	<g>
		<path fill="#136296" d="M49.525,94.997c-0.028,0-0.056-0.002-0.085-0.007c-0.275-0.046-0.461-0.307-0.414-0.582
			c0.015-0.089,1.563-8.94,7.916-17.656c5.869-8.052,17.147-17.65,37.553-17.65c0.279,0,0.505,0.226,0.505,0.506
			c0,0.279-0.226,0.506-0.505,0.506c-19.96,0-30.98,9.354-36.711,17.201c-6.227,8.526-7.747,17.176-7.761,17.263
			C49.981,94.822,49.767,94.997,49.525,94.997z"/>
	</g>
	<g>
		<path fill="#136296" d="M53.946,82.799H5.53c-0.279,0-0.505-0.226-0.505-0.506s0.226-0.506,0.505-0.506h48.415
			c0.279,0,0.505,0.226,0.505,0.506S54.225,82.799,53.946,82.799z"/>
	</g>
	<g>
		<g>
			<path fill="#136296" d="M7.299,86.486H5.53c-0.279,0-0.505-0.226-0.505-0.506c0-0.279,0.226-0.506,0.505-0.506h1.769
				c0.279,0,0.505,0.226,0.505,0.506C7.805,86.259,7.579,86.486,7.299,86.486z"/>
		</g>
		<g>
			<path fill="#136296" d="M46.989,86.486h-3.307c-0.279,0-0.505-0.226-0.505-0.506c0-0.279,0.226-0.506,0.505-0.506h3.307
				c0.279,0,0.505,0.226,0.505,0.506C47.494,86.259,47.268,86.486,46.989,86.486z M40.374,86.486h-3.308
				c-0.279,0-0.505-0.226-0.505-0.506c0-0.279,0.226-0.506,0.505-0.506h3.308c0.279,0,0.505,0.226,0.505,0.506
				C40.88,86.259,40.654,86.486,40.374,86.486z M33.759,86.486h-3.307c-0.279,0-0.505-0.226-0.505-0.506
				c0-0.279,0.226-0.506,0.505-0.506h3.307c0.279,0,0.505,0.226,0.505,0.506C34.264,86.259,34.038,86.486,33.759,86.486z
				 M27.144,86.486h-3.308c-0.279,0-0.505-0.226-0.505-0.506c0-0.279,0.226-0.506,0.505-0.506h3.308
				c0.279,0,0.505,0.226,0.505,0.506C27.65,86.259,27.424,86.486,27.144,86.486z M20.529,86.486h-3.307
				c-0.279,0-0.505-0.226-0.505-0.506c0-0.279,0.226-0.506,0.505-0.506h3.307c0.279,0,0.505,0.226,0.505,0.506
				C21.035,86.259,20.808,86.486,20.529,86.486z M13.914,86.486h-3.307c-0.279,0-0.505-0.226-0.505-0.506
				c0-0.279,0.226-0.506,0.505-0.506h3.307c0.279,0,0.505,0.226,0.505,0.506C14.419,86.259,14.193,86.486,13.914,86.486z"/>
		</g>
		<g>
			<path fill="#136296" d="M52.066,86.486h-1.769c-0.279,0-0.505-0.226-0.505-0.506c0-0.279,0.226-0.506,0.505-0.506h1.769
				c0.279,0,0.505,0.226,0.505,0.506C52.571,86.259,52.345,86.486,52.066,86.486z"/>
		</g>
	</g>
	<g>
		<g>
			<path fill="#136296" d="M8.057,90.865H5.53c-0.279,0-0.505-0.226-0.505-0.506c0-0.279,0.226-0.506,0.505-0.506h2.527
				c0.279,0,0.505,0.226,0.505,0.506C8.563,90.638,8.337,90.865,8.057,90.865z"/>
		</g>
		<g>
			<path fill="#136296" d="M42.229,90.865h-5.695c-0.279,0-0.505-0.226-0.505-0.506c0-0.279,0.226-0.506,0.505-0.506h5.695
				c0.279,0,0.505,0.226,0.505,0.506C42.734,90.638,42.508,90.865,42.229,90.865z M30.838,90.865h-5.695
				c-0.279,0-0.505-0.226-0.505-0.506c0-0.279,0.226-0.506,0.505-0.506h5.695c0.279,0,0.505,0.226,0.505,0.506
				C31.344,90.638,31.118,90.865,30.838,90.865z M19.448,90.865h-5.695c-0.279,0-0.505-0.226-0.505-0.506
				c0-0.279,0.226-0.506,0.505-0.506h5.695c0.279,0,0.505,0.226,0.505,0.506C19.953,90.638,19.727,90.865,19.448,90.865z"/>
		</g>
		<g>
			<path fill="#136296" d="M50.452,90.865h-2.527c-0.279,0-0.505-0.226-0.505-0.506c0-0.279,0.226-0.506,0.505-0.506h2.527
				c0.279,0,0.505,0.226,0.505,0.506C50.957,90.638,50.731,90.865,50.452,90.865z"/>
		</g>
	</g>
	<g>
		<g>
			<path fill="#136296" d="M7.299,94.997H5.53c-0.279,0-0.505-0.226-0.505-0.506s0.226-0.506,0.505-0.506h1.769
				c0.279,0,0.505,0.226,0.505,0.506S7.579,94.997,7.299,94.997z"/>
		</g>
		<g>
			<path fill="#136296" d="M44.077,94.997h-3.678c-0.279,0-0.505-0.226-0.505-0.506s0.226-0.506,0.505-0.506h3.678
				c0.279,0,0.505,0.226,0.505,0.506S44.356,94.997,44.077,94.997z M36.721,94.997h-3.678c-0.279,0-0.505-0.226-0.505-0.506
				s0.226-0.506,0.505-0.506h3.678c0.279,0,0.505,0.226,0.505,0.506S37.001,94.997,36.721,94.997z M29.366,94.997h-3.678
				c-0.279,0-0.505-0.226-0.505-0.506s0.226-0.506,0.505-0.506h3.678c0.279,0,0.505,0.226,0.505,0.506S29.645,94.997,29.366,94.997z
				 M22.01,94.997h-3.678c-0.279,0-0.505-0.226-0.505-0.506s0.226-0.506,0.505-0.506h3.678c0.279,0,0.505,0.226,0.505,0.506
				S22.289,94.997,22.01,94.997z M14.654,94.997h-3.678c-0.279,0-0.505-0.226-0.505-0.506s0.226-0.506,0.505-0.506h3.678
				c0.279,0,0.505,0.226,0.505,0.506S14.934,94.997,14.654,94.997z"/>
		</g>
		<g>
			<path fill="#136296" d="M49.524,94.997h-1.769c-0.279,0-0.505-0.226-0.505-0.506s0.226-0.506,0.505-0.506h1.769
				c0.279,0,0.505,0.226,0.505,0.506S49.803,94.997,49.524,94.997z"/>
		</g>
	</g>
	<g>
		<path fill="#136296" d="M28.443,25.93c-0.003,0-0.007,0-0.01,0c-8.505-0.178-14.855-2.564-18.874-7.092
			C4.367,12.988,5.01,5.764,5.04,5.46c0.025-0.259,0.243-0.456,0.503-0.456c9.091,0,15.697,2.36,19.635,7.014
			c4.971,5.875,3.815,13.183,3.763,13.491C28.901,25.752,28.689,25.93,28.443,25.93z M6.023,6.017
			c-0.045,1.655,0.123,7.462,4.302,12.161c3.753,4.221,9.697,6.484,17.672,6.73c0.159-1.629,0.406-7.522-3.599-12.246
			C20.729,8.331,14.549,6.097,6.023,6.017z"/>
	</g>
	<g>
		<path fill="#136296" d="M28.443,25.93c-0.133,0-0.262-0.053-0.357-0.148c-0.11-0.11-0.163-0.264-0.145-0.418
			c0.025-0.203,2.748-20.36,27.796-20.36c0.267,0,0.488,0.208,0.504,0.475c0.011,0.175,0.222,4.348-3.132,8.988
			c-3.058,4.23-9.809,9.652-24.605,11.46C28.484,25.929,28.463,25.93,28.443,25.93z M55.226,6.018
			C45.481,6.13,37.869,9.483,33.19,15.731c-2.834,3.784-3.832,7.615-4.132,9.106C53.21,21.652,55.096,8.681,55.226,6.018z"/>
	</g>
	<g>
		<path fill="#136296" d="M5.509,53.625c-0.105,0-0.209-0.033-0.296-0.096c-0.132-0.095-0.209-0.247-0.209-0.41
			c0-10.257,2.689-17.916,7.992-22.762c6.731-6.15,15.139-5.468,15.492-5.436c0.271,0.025,0.475,0.26,0.459,0.532
			C27.782,46.096,5.888,53.527,5.667,53.6C5.615,53.616,5.562,53.625,5.509,53.625z M27.555,25.902
			c-2.27,0-8.693,0.456-13.888,5.211c-4.954,4.534-7.525,11.69-7.648,21.279c3.604-1.402,20.579-8.92,21.886-26.486
			C27.803,25.904,27.686,25.902,27.555,25.902z"/>
	</g>
	<g>
		<path fill="#136296" d="M59.273,75.105c-0.019,0-0.039-0.001-0.059-0.003c-0.168-0.02-0.315-0.122-0.392-0.274
			c-0.15-0.295-15.078-29.594-30.642-45.664l-0.224-0.057c-0.255-0.065-0.418-0.315-0.374-0.575c0.178-1.045,0.297-2.1,0.356-3.136
			c0.014-0.244,0.2-0.444,0.443-0.473c0.859-0.105,1.711-0.225,2.533-0.356c0.11-0.019,0.226,0,0.323,0.053
			c0.272,0.146,27.466,14.852,48.399,36.697c0.122,0.127,0.169,0.309,0.123,0.48c-0.045,0.171-0.176,0.305-0.346,0.355
			c-7.911,2.325-14.558,6.623-19.757,12.775C59.562,75.04,59.42,75.105,59.273,75.105z M28.652,28.249
			c0.057,0.026,0.109,0.062,0.153,0.108C43.193,43.157,57.038,69.2,59.378,73.701c5.075-5.798,11.446-9.924,18.957-12.279
			C58.402,40.855,33.083,26.78,30.909,25.591c-0.651,0.102-1.317,0.197-1.988,0.283C28.865,26.662,28.775,27.457,28.652,28.249z"/>
	</g>
	<g>
		<g>
			<path fill="#136296" d="M20.427,43.979c-0.126,0-0.252-0.047-0.349-0.14c-0.202-0.193-0.209-0.513-0.015-0.715
				c0.284-0.297,0.566-0.602,0.843-0.915c0.132-0.148,0.338-0.206,0.526-0.149c0.416,0.126,0.832,0.277,1.238,0.449
				c0.257,0.109,0.377,0.405,0.269,0.662c-0.109,0.257-0.406,0.378-0.662,0.269c-0.273-0.116-0.553-0.221-0.833-0.315
				c-0.215,0.237-0.431,0.47-0.65,0.698C20.693,43.927,20.56,43.979,20.427,43.979z"/>
		</g>
		<g>
			<path fill="#136296" d="M8.926,52.187c-0.188,0-0.369-0.105-0.456-0.286c-0.121-0.252-0.015-0.554,0.236-0.675
				c0.697-0.336,1.396-0.697,2.078-1.073c0.245-0.135,0.552-0.046,0.687,0.198c0.135,0.244,0.046,0.552-0.198,0.687
				c-0.699,0.386-1.415,0.755-2.129,1.099C9.074,52.171,9,52.187,8.926,52.187z M13.071,49.902c-0.168,0-0.333-0.084-0.429-0.237
				c-0.148-0.237-0.076-0.549,0.16-0.697c0.663-0.415,1.318-0.851,1.947-1.295c0.228-0.161,0.543-0.107,0.704,0.121
				c0.161,0.228,0.107,0.544-0.121,0.705c-0.644,0.455-1.315,0.902-1.994,1.327C13.255,49.877,13.163,49.902,13.071,49.902z
				 M16.932,47.168c-0.149,0-0.295-0.065-0.395-0.19c-0.174-0.218-0.139-0.536,0.079-0.71c0.611-0.489,1.208-0.999,1.776-1.516
				c0.208-0.188,0.527-0.173,0.714,0.033c0.188,0.206,0.173,0.526-0.033,0.714c-0.583,0.532-1.198,1.056-1.825,1.558
				C17.155,47.132,17.043,47.168,16.932,47.168z"/>
		</g>
		<g>
			<path fill="#136296" d="M5.531,54.862c-0.277,0-0.503-0.223-0.505-0.5l-0.001-0.149c0-0.374,0.018-0.755,0.055-1.164
				c0.018-0.198,0.151-0.367,0.339-0.432c0.147-0.051,0.552-0.195,1.153-0.439c0.257-0.105,0.554,0.019,0.659,0.278
				c0.106,0.258-0.019,0.553-0.277,0.659c-0.373,0.152-0.675,0.267-0.892,0.347c-0.017,0.259-0.026,0.508-0.026,0.752l0.001,0.139
				c0.003,0.279-0.221,0.508-0.501,0.511C5.535,54.862,5.533,54.862,5.531,54.862z"/>
		</g>
		<g>
			<path fill="#136296" d="M17.725,66.915c-0.534,0-1.07-0.033-1.595-0.099c-0.277-0.035-0.473-0.287-0.439-0.565
				c0.035-0.277,0.284-0.475,0.564-0.439c0.784,0.098,1.595,0.118,2.389,0.056c0.287-0.02,0.521,0.187,0.543,0.465
				c0.022,0.278-0.187,0.522-0.465,0.543C18.392,66.902,18.056,66.915,17.725,66.915z M21.135,66.432
				c-0.219,0-0.421-0.144-0.485-0.365c-0.078-0.268,0.076-0.549,0.344-0.627c0.763-0.222,1.508-0.525,2.212-0.899
				c0.248-0.132,0.552-0.038,0.684,0.209c0.131,0.247,0.038,0.553-0.209,0.684c-0.766,0.407-1.575,0.736-2.405,0.978
				C21.23,66.425,21.182,66.432,21.135,66.432z M13.765,66.257c-0.054,0-0.11-0.009-0.164-0.028c-0.817-0.28-1.61-0.647-2.355-1.09
				c-0.24-0.143-0.319-0.453-0.176-0.693c0.142-0.24,0.453-0.319,0.693-0.177c0.686,0.408,1.415,0.745,2.167,1.003
				c0.264,0.09,0.405,0.378,0.314,0.642C14.172,66.125,13.976,66.257,13.765,66.257z M25.514,64.104
				c-0.145,0-0.289-0.062-0.389-0.182c-0.178-0.215-0.149-0.534,0.066-0.712c0.613-0.509,1.175-1.083,1.673-1.706
				c0.174-0.218,0.492-0.254,0.71-0.079c0.218,0.174,0.254,0.492,0.079,0.71c-0.54,0.676-1.152,1.3-1.817,1.852
				C25.742,64.065,25.627,64.104,25.514,64.104z M9.503,63.726c-0.122,0-0.244-0.044-0.341-0.132
				c-0.639-0.585-1.221-1.236-1.728-1.936c-0.164-0.226-0.114-0.542,0.113-0.706c0.227-0.164,0.543-0.114,0.706,0.113
				c0.467,0.645,1.003,1.245,1.592,1.783c0.206,0.188,0.22,0.508,0.032,0.714C9.777,63.671,9.64,63.726,9.503,63.726z
				 M28.606,60.229c-0.077,0-0.155-0.018-0.228-0.055c-0.249-0.126-0.349-0.431-0.222-0.68c0.36-0.71,0.648-1.46,0.855-2.23
				c0.073-0.27,0.35-0.431,0.62-0.356c0.27,0.073,0.429,0.35,0.356,0.62c-0.226,0.836-0.539,1.652-0.93,2.424
				C28.969,60.128,28.791,60.229,28.606,60.229z M6.595,59.71c-0.194,0-0.378-0.111-0.462-0.299
				c-0.355-0.791-0.628-1.621-0.814-2.466c-0.06-0.273,0.113-0.542,0.385-0.602c0.271-0.061,0.542,0.112,0.602,0.385
				c0.171,0.778,0.423,1.541,0.749,2.269c0.115,0.255,0,0.554-0.254,0.668C6.734,59.695,6.664,59.71,6.595,59.71z M29.899,55.442
				c-0.01,0-0.02,0-0.03-0.001c-0.279-0.016-0.492-0.255-0.475-0.534c0.013-0.23,0.02-0.462,0.02-0.696
				c0-0.566-0.041-1.135-0.121-1.693c-0.04-0.276,0.152-0.533,0.427-0.573c0.273-0.039,0.533,0.152,0.573,0.428
				c0.088,0.606,0.132,1.224,0.132,1.838c0,0.253-0.007,0.505-0.022,0.754C30.388,55.235,30.165,55.442,29.899,55.442z
				 M29.183,50.535c-0.206,0-0.4-0.127-0.475-0.332c-0.273-0.748-0.624-1.47-1.046-2.148c-0.147-0.237-0.075-0.549,0.163-0.696
				c0.237-0.147,0.548-0.075,0.696,0.163c0.457,0.737,0.84,1.522,1.136,2.335c0.096,0.262-0.039,0.552-0.302,0.648
				C29.299,50.525,29.241,50.535,29.183,50.535z M26.569,46.321c-0.134,0-0.267-0.053-0.367-0.158
				c-0.549-0.578-1.159-1.102-1.813-1.556c-0.23-0.159-0.286-0.474-0.127-0.704c0.159-0.23,0.474-0.286,0.703-0.127
				c0.71,0.494,1.373,1.063,1.97,1.691c0.192,0.202,0.184,0.522-0.019,0.715C26.819,46.275,26.694,46.321,26.569,46.321z"/>
		</g>
	</g>
	<g>
		<path fill="#136296" d="M17.725,63.753c-5.26,0-9.539-4.28-9.539-9.541c0-0.927,0.137-1.852,0.406-2.749
			c0.041-0.135,0.136-0.248,0.263-0.309c2.426-1.18,6.033-3.232,9.434-6.307c0.106-0.096,0.247-0.144,0.389-0.128
			c4.895,0.487,8.586,4.567,8.586,9.493C27.264,59.473,22.984,63.753,17.725,63.753z M9.5,51.964
			c-0.201,0.736-0.303,1.492-0.303,2.248c0,4.703,3.826,8.53,8.528,8.53s8.528-3.826,8.528-8.53c0-4.33-3.19-7.929-7.456-8.462
			C15.452,48.736,11.939,50.761,9.5,51.964z"/>
	</g>
</g>
</svg>