<?xml version="1.0" encoding="utf-8"?>

<!-- Uploaded to: SVG Repo, www.svgrepo.com, Generator: SVG Repo Mixer Tools -->
<svg version="1.1" id="Layer_1" xmlns="http://www.w3.org/2000/svg" xmlns:xlink="http://www.w3.org/1999/xlink" 
	 viewBox="0 0 100 100" enable-background="new 0 0 100 100" xml:space="preserve">
<g>
	<rect x="17.64" y="5.506" fill="#7C7FBD" width="64.719" height="88.985"/>
	<path fill="#6AC9CC" d="M58.747,94.491v-18.05c0-4.81-3.936-8.746-8.747-8.746s-8.747,3.936-8.747,8.746v18.05H58.747z"/>
	<g>
		<rect x="22.981" y="10.691" fill="#6AC9CC" width="9.254" height="9.253"/>
		<rect x="37.909" y="10.691" fill="#6AC9CC" width="9.254" height="9.253"/>
		<rect x="22.981" y="24.316" fill="#6AC9CC" width="9.254" height="9.253"/>
		<rect x="52.837" y="24.316" fill="#6AC9CC" width="9.254" height="9.253"/>
		<rect x="22.981" y="37.941" fill="#6AC9CC" width="9.254" height="9.253"/>
		<rect x="52.837" y="37.941" fill="#6AC9CC" width="9.254" height="9.253"/>
		<rect x="67.765" y="10.691" fill="#6AC9CC" width="9.254" height="9.253"/>
		<rect x="67.765" y="37.941" fill="#6AC9CC" width="9.254" height="9.253"/>
		<rect x="37.909" y="37.941" fill="#6AC9CC" width="9.254" height="9.253"/>
		<rect x="22.981" y="51.567" fill="#6AC9CC" width="9.254" height="9.253"/>
		<rect x="52.837" y="51.567" fill="#6AC9CC" width="9.254" height="9.253"/>
		<rect x="67.765" y="51.567" fill="#6AC9CC" width="9.254" height="9.253"/>
	</g>
	<g>
		<rect x="52.837" y="10.691" fill="#FEE36F" width="9.254" height="9.253"/>
		<rect x="37.909" y="24.316" fill="#FEE36F" width="9.254" height="9.253"/>
		<rect x="67.765" y="24.316" fill="#FEE36F" width="9.254" height="9.253"/>
		<rect x="37.909" y="51.567" fill="#FEE36F" width="9.254" height="9.253"/>
	</g>
	<rect x="22.981" y="67.695" fill="#F1B57D" width="13.958" height="26.799"/>
	<rect x="63.062" y="67.695" fill="#F1B57D" width="13.958" height="26.799"/>
	<path fill="#FEE36F" d="M55.873,94.491V76.6c0-3.23-2.643-5.873-5.873-5.873s-5.873,2.643-5.873,5.873v17.891H55.873z"/>
	<path fill="#136296" d="M94.494,93.985h-5.309v-1.264c0-0.279-0.226-0.506-0.506-0.506c-0.279,0-0.506,0.226-0.506,0.506v1.264
		h-5.309V5.506C82.865,5.226,82.639,5,82.36,5H17.64c-0.279,0-0.506,0.226-0.506,0.506v88.48h-5.309v-1.264
		c0-0.279-0.226-0.506-0.506-0.506s-0.506,0.226-0.506,0.506v1.264H5.506C5.226,93.985,5,94.212,5,94.491s0.226,0.506,0.506,0.506
		H17.64h5.323c0.006,0,0.011,0.003,0.017,0.003h13.958c0.006,0,0.011-0.003,0.017-0.003h4.298h2.873h11.747h2.873h4.298
		c0.006,0,0.011,0.003,0.017,0.003h13.958c0.006,0,0.011-0.003,0.017-0.003h5.323h12.135c0.279,0,0.506-0.226,0.506-0.506
		S94.774,93.985,94.494,93.985z M30.465,93.985V81.6h5.968v12.385H30.465z M36.433,80.589h-5.968V68.201h5.968V80.589z
		 M29.454,80.589h-5.968V68.201h5.968V80.589z M23.486,81.6h5.968v12.385h-5.968V81.6z M49.494,93.985h-4.862V76.6
		c0-2.789,2.139-5.086,4.862-5.342V93.985z M50.506,93.985V71.258c2.723,0.256,4.862,2.553,4.862,5.342v17.386H50.506z
		 M56.379,93.985V76.6c0-3.517-2.861-6.378-6.379-6.378s-6.379,2.861-6.379,6.378v17.386h-1.862V76.441
		c0-4.544,3.697-8.24,8.241-8.24s8.241,3.697,8.241,8.24v17.544H56.379z M70.546,93.985V81.6h5.968v12.385H70.546z M76.514,80.589
		h-5.968V68.201h5.968V80.589z M69.535,80.589h-5.968V68.201h5.968V80.589z M63.567,81.6h5.968v12.385h-5.968V81.6z M77.525,93.985
		v-26.29c0-0.279-0.226-0.506-0.506-0.506H63.062c-0.279,0-0.506,0.226-0.506,0.506v26.29h-3.304V76.441
		c0-5.101-4.151-9.252-9.252-9.252s-9.252,4.15-9.252,9.252v17.544h-3.304v-26.29c0-0.279-0.226-0.506-0.506-0.506H22.981
		c-0.279,0-0.506,0.226-0.506,0.506v26.29h-4.329V6.011h63.708v87.974H77.525z"/>
	<path fill="#136296" d="M32.235,10.186h-9.254c-0.279,0-0.506,0.226-0.506,0.506v9.253c0,0.279,0.226,0.506,0.506,0.506h9.254
		c0.279,0,0.506-0.226,0.506-0.506v-9.253C32.74,10.412,32.514,10.186,32.235,10.186z M31.729,19.439h-8.243v-8.242h8.243V19.439z"
		/>
	<path fill="#136296" d="M62.091,10.186h-9.254c-0.279,0-0.506,0.226-0.506,0.506v9.253c0,0.279,0.226,0.506,0.506,0.506h9.254
		c0.279,0,0.506-0.226,0.506-0.506v-9.253C62.597,10.412,62.37,10.186,62.091,10.186z M61.585,19.439h-8.242v-8.242h8.242V19.439z"
		/>
	<path fill="#136296" d="M47.163,10.186h-9.254c-0.279,0-0.506,0.226-0.506,0.506v9.253c0,0.279,0.226,0.506,0.506,0.506h9.254
		c0.279,0,0.506-0.226,0.506-0.506v-9.253C47.668,10.412,47.442,10.186,47.163,10.186z M46.657,19.439h-8.242v-8.242h8.242V19.439z"
		/>
	<path fill="#136296" d="M32.235,23.811h-9.254c-0.279,0-0.506,0.226-0.506,0.506v9.253c0,0.279,0.226,0.506,0.506,0.506h9.254
		c0.279,0,0.506-0.226,0.506-0.506v-9.253C32.74,24.037,32.514,23.811,32.235,23.811z M31.729,33.064h-8.243v-8.242h8.243V33.064z"
		/>
	<path fill="#136296" d="M62.091,23.811h-9.254c-0.279,0-0.506,0.226-0.506,0.506v9.253c0,0.279,0.226,0.506,0.506,0.506h9.254
		c0.279,0,0.506-0.226,0.506-0.506v-9.253C62.597,24.037,62.37,23.811,62.091,23.811z M61.585,33.064h-8.242v-8.242h8.242V33.064z"
		/>
	<path fill="#136296" d="M47.163,23.811h-9.254c-0.279,0-0.506,0.226-0.506,0.506v9.253c0,0.279,0.226,0.506,0.506,0.506h9.254
		c0.279,0,0.506-0.226,0.506-0.506v-9.253C47.668,24.037,47.442,23.811,47.163,23.811z M46.657,33.064h-8.242v-8.242h8.242V33.064z"
		/>
	<path fill="#136296" d="M32.235,37.436h-9.254c-0.279,0-0.506,0.226-0.506,0.506v9.253c0,0.279,0.226,0.506,0.506,0.506h9.254
		c0.279,0,0.506-0.226,0.506-0.506v-9.253C32.74,37.662,32.514,37.436,32.235,37.436z M31.729,46.689h-8.243v-8.242h8.243V46.689z"
		/>
	<path fill="#136296" d="M62.091,37.436h-9.254c-0.279,0-0.506,0.226-0.506,0.506v9.253c0,0.279,0.226,0.506,0.506,0.506h9.254
		c0.279,0,0.506-0.226,0.506-0.506v-9.253C62.597,37.662,62.37,37.436,62.091,37.436z M61.585,46.689h-8.242v-8.242h8.242V46.689z"
		/>
	<path fill="#136296" d="M77.019,10.186h-9.254c-0.279,0-0.506,0.226-0.506,0.506v9.253c0,0.279,0.226,0.506,0.506,0.506h9.254
		c0.279,0,0.506-0.226,0.506-0.506v-9.253C77.525,10.412,77.299,10.186,77.019,10.186z M76.514,19.439h-8.243v-8.242h8.243V19.439z"
		/>
	<path fill="#136296" d="M77.019,23.811h-9.254c-0.279,0-0.506,0.226-0.506,0.506v9.253c0,0.279,0.226,0.506,0.506,0.506h9.254
		c0.279,0,0.506-0.226,0.506-0.506v-9.253C77.525,24.037,77.299,23.811,77.019,23.811z M76.514,33.064h-8.243v-8.242h8.243V33.064z"
		/>
	<path fill="#136296" d="M77.019,37.436h-9.254c-0.279,0-0.506,0.226-0.506,0.506v9.253c0,0.279,0.226,0.506,0.506,0.506h9.254
		c0.279,0,0.506-0.226,0.506-0.506v-9.253C77.525,37.662,77.299,37.436,77.019,37.436z M76.514,46.689h-8.243v-8.242h8.243V46.689z"
		/>
	<path fill="#136296" d="M47.163,37.436h-9.254c-0.279,0-0.506,0.226-0.506,0.506v9.253c0,0.279,0.226,0.506,0.506,0.506h9.254
		c0.279,0,0.506-0.226,0.506-0.506v-9.253C47.668,37.662,47.442,37.436,47.163,37.436z M46.657,46.689h-8.242v-8.242h8.242V46.689z"
		/>
	<path fill="#136296" d="M32.235,51.061h-9.254c-0.279,0-0.506,0.226-0.506,0.506v9.253c0,0.279,0.226,0.506,0.506,0.506h9.254
		c0.279,0,0.506-0.226,0.506-0.506v-9.253C32.74,51.287,32.514,51.061,32.235,51.061z M31.729,60.315h-8.243v-8.242h8.243V60.315z"
		/>
	<path fill="#136296" d="M62.091,51.061h-9.254c-0.279,0-0.506,0.226-0.506,0.506v9.253c0,0.279,0.226,0.506,0.506,0.506h9.254
		c0.279,0,0.506-0.226,0.506-0.506v-9.253C62.597,51.287,62.37,51.061,62.091,51.061z M61.585,60.315h-8.242v-8.242h8.242V60.315z"
		/>
	<path fill="#136296" d="M77.019,51.061h-9.254c-0.279,0-0.506,0.226-0.506,0.506v9.253c0,0.279,0.226,0.506,0.506,0.506h9.254
		c0.279,0,0.506-0.226,0.506-0.506v-9.253C77.525,51.287,77.299,51.061,77.019,51.061z M76.514,60.315h-8.243v-8.242h8.243V60.315z"
		/>
	<path fill="#136296" d="M47.163,51.061h-9.254c-0.279,0-0.506,0.226-0.506,0.506v9.253c0,0.279,0.226,0.506,0.506,0.506h9.254
		c0.279,0,0.506-0.226,0.506-0.506v-9.253C47.668,51.287,47.442,51.061,47.163,51.061z M46.657,60.315h-8.242v-8.242h8.242V60.315z"
		/>
	<g>
		<path fill="#136296" d="M11.32,57.565c-0.279,0-0.506,0.226-0.506,0.506v3.465c0,0.279,0.226,0.506,0.506,0.506
			s0.506-0.226,0.506-0.506v-3.465C11.826,57.791,11.6,57.565,11.32,57.565z"/>
		<path fill="#136296" d="M11.32,64.495c-0.279,0-0.506,0.226-0.506,0.506v3.465c0,0.279,0.226,0.506,0.506,0.506
			s0.506-0.226,0.506-0.506V65C11.826,64.721,11.6,64.495,11.32,64.495z"/>
		<path fill="#136296" d="M11.32,85.286c-0.279,0-0.506,0.226-0.506,0.506v3.465c0,0.279,0.226,0.506,0.506,0.506
			s0.506-0.226,0.506-0.506v-3.465C11.826,85.512,11.6,85.286,11.32,85.286z"/>
		<path fill="#136296" d="M11.32,78.355c-0.279,0-0.506,0.226-0.506,0.506v3.465c0,0.279,0.226,0.506,0.506,0.506
			s0.506-0.226,0.506-0.506v-3.465C11.826,78.582,11.6,78.355,11.32,78.355z"/>
		<path fill="#136296" d="M11.32,71.425c-0.279,0-0.506,0.226-0.506,0.506v3.465c0,0.279,0.226,0.506,0.506,0.506
			s0.506-0.226,0.506-0.506v-3.465C11.826,71.652,11.6,71.425,11.32,71.425z"/>
		<path fill="#136296" d="M11.32,52.33c-0.279,0-0.506,0.226-0.506,0.506v1.77c0,0.279,0.226,0.506,0.506,0.506
			s0.506-0.226,0.506-0.506v-1.77C11.826,52.556,11.6,52.33,11.32,52.33z"/>
		<path fill="#136296" d="M88.68,64.495c-0.279,0-0.506,0.226-0.506,0.506v3.465c0,0.279,0.226,0.506,0.506,0.506
			c0.279,0,0.506-0.226,0.506-0.506V65C89.185,64.721,88.959,64.495,88.68,64.495z"/>
		<path fill="#136296" d="M88.68,71.425c-0.279,0-0.506,0.226-0.506,0.506v3.465c0,0.279,0.226,0.506,0.506,0.506
			c0.279,0,0.506-0.226,0.506-0.506v-3.465C89.185,71.652,88.959,71.425,88.68,71.425z"/>
		<path fill="#136296" d="M88.68,57.565c-0.279,0-0.506,0.226-0.506,0.506v3.465c0,0.279,0.226,0.506,0.506,0.506
			c0.279,0,0.506-0.226,0.506-0.506v-3.465C89.185,57.791,88.959,57.565,88.68,57.565z"/>
		<path fill="#136296" d="M88.68,78.355c-0.279,0-0.506,0.226-0.506,0.506v3.465c0,0.279,0.226,0.506,0.506,0.506
			c0.279,0,0.506-0.226,0.506-0.506v-3.465C89.185,78.582,88.959,78.355,88.68,78.355z"/>
		<path fill="#136296" d="M88.68,85.286c-0.279,0-0.506,0.226-0.506,0.506v3.465c0,0.279,0.226,0.506,0.506,0.506
			c0.279,0,0.506-0.226,0.506-0.506v-3.465C89.185,85.512,88.959,85.286,88.68,85.286z"/>
		<path fill="#136296" d="M88.68,52.33c-0.279,0-0.506,0.226-0.506,0.506v1.77c0,0.279,0.226,0.506,0.506,0.506
			c0.279,0,0.506-0.226,0.506-0.506v-1.77C89.185,52.556,88.959,52.33,88.68,52.33z"/>
	</g>
</g>
</svg>