<?xml version="1.0" encoding="utf-8"?>

<!-- Uploaded to: SVG Repo, www.svgrepo.com, Generator: SVG Repo Mixer Tools -->
<svg height="800px" width="800px" version="1.1" id="Layer_1" xmlns="http://www.w3.org/2000/svg" xmlns:xlink="http://www.w3.org/1999/xlink" 
	 viewBox="0 0 100 100" enable-background="new 0 0 100 100" xml:space="preserve">
<g>
	<path fill="#53C2BA" d="M50,41.875c-12.451,0-22.544,10.156-22.544,22.685v12.067c0,9.866,7.949,17.864,17.754,17.864h9.581
		c9.805,0,17.754-7.998,17.754-17.864V64.56C72.544,52.032,62.451,41.875,50,41.875z"/>
	<path fill="#FFFFFF" d="M47.428,52.28v8.087H32.19l3.369-4.112c1.031-1.259,2.41-2.175,3.966-2.635
		C41.591,53.007,44.634,52.28,47.428,52.28z"/>
	<path fill="#FFFFFF" d="M52.572,52.28v8.087H67.81l-3.369-4.112c-1.031-1.259-2.41-2.175-3.966-2.635
		C58.409,53.007,55.366,52.28,52.572,52.28z"/>
	<path fill="#53C2BA" d="M50,41.875c2.037,0,4,0.296,5.877,0.806c-0.494-13.557-2.775-27.19-4.348-35.207
		c-0.514-2.62-2.545-2.62-3.059,0c-1.572,8.018-3.854,21.651-4.348,35.207C46,42.172,47.963,41.875,50,41.875z"/>
	<g>
		<path fill="#FEE36F" d="M10.244,44.692c1.619,1.869,10.538,3.872,22.855,4.89c4.131-4.716,10.162-7.706,16.901-7.706H11.263
			C11.263,41.875,7.949,42.043,10.244,44.692z"/>
		<path fill="#FEE36F" d="M88.737,41.875H50c6.739,0,12.769,2.991,16.901,7.706c12.317-1.018,21.236-3.021,22.855-4.89
			C92.051,42.043,88.737,41.875,88.737,41.875z"/>
	</g>
	<path fill="#FEE36F" d="M72.544,68.183v8.443c0,4.332-1.534,8.302-4.083,11.395c3.949-0.119,18.206,0,26.033-3.739V72.606v-0.618
		v-4.725C84.28,67.95,72.544,68.183,72.544,68.183z"/>
	<path fill="#FEE36F" d="M27.456,68.183v8.443c0,4.332,1.534,8.302,4.083,11.395c-3.949-0.119-18.206,0-26.033-3.739V72.606v-0.618
		v-4.725C15.72,67.95,27.456,68.183,27.456,68.183z"/>
	<path fill="#6AC9CC" d="M5.506,78.646v5.637c7.827,3.739,22.084,3.619,26.033,3.739c-1.378-1.672-2.456-3.602-3.158-5.705
		C22.518,82.177,11.88,81.691,5.506,78.646z"/>
	<path fill="#6AC9CC" d="M94.494,78.646v5.637c-7.827,3.739-22.084,3.619-26.033,3.739c1.378-1.672,2.456-3.602,3.158-5.705
		C77.482,82.177,88.12,81.691,94.494,78.646z"/>
	<g>
		<g>
			<path fill="#136296" d="M27.6,70.465c-0.243,0-0.458-0.177-0.498-0.427c-0.1-0.615-0.151-1.239-0.151-1.855
				c0-0.281,0.226-0.509,0.506-0.509c0.279,0,0.506,0.228,0.506,0.509c0,0.561,0.046,1.129,0.138,1.691
				c0.045,0.277-0.141,0.539-0.417,0.584C27.654,70.463,27.627,70.465,27.6,70.465z"/>
		</g>
		<g>
			<path fill="#136296" d="M48.326,86.472c-0.016,0-0.033-0.001-0.049-0.002c-1.118-0.109-2.291-0.322-3.487-0.632
				c-0.27-0.07-0.433-0.348-0.363-0.62c0.07-0.272,0.345-0.436,0.616-0.366c1.145,0.297,2.266,0.5,3.332,0.604
				c0.278,0.027,0.481,0.276,0.454,0.555C48.803,86.275,48.583,86.472,48.326,86.472z M51.786,86.472
				c-0.258,0-0.479-0.198-0.503-0.462c-0.026-0.28,0.179-0.527,0.457-0.553c1.083-0.1,2.207-0.293,3.341-0.572
				c0.268-0.067,0.545,0.1,0.611,0.373c0.066,0.273-0.099,0.548-0.371,0.615c-1.182,0.291-2.356,0.492-3.489,0.597
				C51.817,86.471,51.801,86.472,51.786,86.472z M58.507,84.84c-0.203,0-0.394-0.124-0.472-0.326c-0.1-0.262,0.029-0.557,0.29-0.658
				c1.055-0.409,2.098-0.888,3.097-1.423c0.247-0.132,0.553-0.038,0.684,0.21c0.131,0.248,0.038,0.556-0.209,0.688
				c-1.035,0.554-2.115,1.05-3.208,1.474C58.629,84.828,58.567,84.84,58.507,84.84z M41.622,84.77c-0.062,0-0.125-0.012-0.186-0.036
				c-1.085-0.433-2.16-0.936-3.196-1.495c-0.246-0.133-0.338-0.441-0.207-0.689c0.133-0.247,0.439-0.34,0.685-0.208
				c1.002,0.541,2.042,1.027,3.09,1.446c0.259,0.104,0.387,0.399,0.284,0.661C42.013,84.648,41.823,84.77,41.622,84.77z
				 M64.614,81.566c-0.159,0-0.315-0.075-0.414-0.216c-0.161-0.23-0.106-0.547,0.122-0.709c0.948-0.672,1.834-1.397,2.633-2.153
				c0.204-0.193,0.523-0.183,0.715,0.022c0.192,0.205,0.182,0.527-0.021,0.719c-0.833,0.789-1.757,1.544-2.744,2.244
				C64.816,81.536,64.714,81.566,64.614,81.566z M35.525,81.474c-0.1,0-0.201-0.03-0.29-0.092c-0.99-0.697-1.917-1.446-2.755-2.225
				c-0.205-0.191-0.218-0.512-0.029-0.719c0.19-0.206,0.509-0.219,0.714-0.029c0.805,0.748,1.697,1.468,2.649,2.139
				c0.229,0.161,0.284,0.478,0.124,0.708C35.841,81.399,35.685,81.474,35.525,81.474z M69.62,76.78
				c-0.106,0-0.212-0.033-0.303-0.102c-0.223-0.169-0.268-0.488-0.1-0.712c0.701-0.937,1.281-1.909,1.724-2.889
				c0.116-0.256,0.416-0.368,0.67-0.252c0.254,0.117,0.366,0.418,0.251,0.674c-0.474,1.047-1.092,2.083-1.836,3.078
				C69.925,76.71,69.773,76.78,69.62,76.78z M30.474,76.733c-0.151,0-0.3-0.068-0.4-0.197c-0.763-0.99-1.397-2.015-1.884-3.049
				c-0.12-0.254-0.012-0.557,0.24-0.678c0.253-0.121,0.554-0.013,0.674,0.241c0.456,0.967,1.051,1.93,1.769,2.862
				c0.171,0.222,0.131,0.542-0.09,0.714C30.691,76.698,30.582,76.733,30.474,76.733z"/>
		</g>
		<g>
			<path fill="#136296" d="M72.408,70.465c-0.026,0-0.052-0.002-0.079-0.006c-0.276-0.043-0.465-0.303-0.422-0.581
				c0.087-0.563,0.131-1.133,0.131-1.695c0-0.281,0.226-0.509,0.506-0.509c0.279,0,0.506,0.228,0.506,0.509
				c0,0.614-0.048,1.237-0.143,1.851C72.868,70.286,72.653,70.465,72.408,70.465z"/>
		</g>
	</g>
	<g>
		<path fill="#136296" d="M47.428,51.771c-2.855,0-5.951,0.739-8.046,1.359c-1.658,0.491-3.115,1.459-4.213,2.8L31.8,60.043
			c-0.125,0.152-0.151,0.363-0.067,0.541c0.083,0.178,0.261,0.292,0.457,0.292h15.238c0.279,0,0.506-0.228,0.506-0.509V52.28
			C47.934,51.999,47.707,51.771,47.428,51.771z M46.923,59.858H33.262l2.687-3.28c0.969-1.183,2.255-2.038,3.719-2.471
			c1.907-0.564,4.663-1.231,7.255-1.31V59.858z"/>
		<path fill="#136296" d="M68.2,60.043l-3.368-4.112c-1.098-1.341-2.555-2.309-4.213-2.8c-2.095-0.62-5.192-1.359-8.046-1.359
			c-0.279,0-0.506,0.228-0.506,0.509v8.087c0,0.281,0.226,0.509,0.506,0.509H67.81c0.196,0,0.374-0.114,0.457-0.292
			C68.351,60.406,68.325,60.195,68.2,60.043z M53.077,59.858v-7.061c2.592,0.079,5.349,0.746,7.255,1.31
			c1.463,0.433,2.749,1.288,3.719,2.471l2.687,3.28H53.077z"/>
		<path fill="#136296" d="M94.84,66.891c-0.102-0.096-0.239-0.145-0.379-0.136c-8.887,0.598-19.042,0.854-21.411,0.908V64.56
			c0-5.509-1.922-10.573-5.122-14.556c11.805-1.04,20.474-2.975,22.21-4.978c0.835-0.964,1.112-1.8,0.823-2.483
			c-0.386-0.915-1.615-1.119-2.055-1.164l-10.653-6.958c-0.234-0.153-0.548-0.086-0.699,0.15c-0.152,0.236-0.085,0.551,0.149,0.704
			l9.327,6.092H72.751l-6.975-6.882c-0.199-0.197-0.519-0.194-0.715,0.007c-0.196,0.201-0.192,0.523,0.007,0.719l6.239,6.156H56.325
			c-0.57-12.826-2.635-25.5-4.3-33.991C51.682,5.624,50.754,5,50,5h0c-0.754,0-1.682,0.624-2.025,2.376
			c-1.665,8.491-3.73,21.166-4.3,33.991l-14.982,0l6.24-6.156c0.199-0.197,0.202-0.519,0.007-0.719
			c-0.196-0.201-0.515-0.204-0.715-0.007l-6.976,6.883l-14.28,0l9.328-6.093c0.234-0.153,0.301-0.468,0.149-0.704
			c-0.152-0.236-0.465-0.303-0.699-0.15l-10.653,6.958c-0.439,0.044-1.668,0.249-2.055,1.164c-0.289,0.684-0.012,1.519,0.823,2.483
			c1.736,2.003,10.405,3.938,22.21,4.978c-3.2,3.983-5.122,9.047-5.122,14.556v3.103c-2.369-0.054-12.523-0.31-21.411-0.908
			c-0.143-0.009-0.277,0.039-0.379,0.136C5.058,66.988,5,67.122,5,67.263v11.383v5.637c0,0.197,0.112,0.375,0.289,0.46
			c0.894,0.427,1.869,0.804,2.902,1.138c7.228,2.335,17.264,2.529,21.88,2.617c0.476,0.009,0.89,0.017,1.241,0.027
			C34.664,92.483,39.649,95,45.209,95h9.581c5.561,0,10.546-2.517,13.897-6.476c0.351-0.009,0.765-0.017,1.241-0.027
			c4.616-0.089,14.653-0.282,21.88-2.617c1.032-0.334,2.008-0.711,2.902-1.138C94.888,84.658,95,84.48,95,84.283v-5.637V67.263
			C95,67.122,94.942,66.988,94.84,66.891z M93.989,67.806v10.511c-6.461,2.948-17.248,3.359-21.678,3.473
			c0.006-0.02,0.011-0.039,0.017-0.059c0.015-0.053,0.03-0.106,0.045-0.158c0.055-0.197,0.107-0.394,0.156-0.594
			c0.009-0.039,0.018-0.078,0.027-0.117c0.138-0.587,0.248-1.185,0.329-1.793c0.017-0.127,0.034-0.254,0.048-0.381
			c0.015-0.132,0.028-0.265,0.04-0.399c0.015-0.168,0.028-0.336,0.038-0.504c0.007-0.105,0.014-0.21,0.019-0.316
			c0.013-0.281,0.021-0.562,0.021-0.844v-7.946C75.345,68.629,85.192,68.381,93.989,67.806z M90.03,42.941
			c0.118,0.282-0.12,0.798-0.655,1.416c-1.276,1.472-8.78,3.563-22.252,4.696c-2.761-3.084-6.331-5.421-10.37-6.669h31.97
			C89.077,42.407,89.876,42.574,90.03,42.941z M48.967,7.573c0.21-1.068,0.683-1.555,1.033-1.555s0.824,0.487,1.033,1.555
			c1.358,6.927,3.677,20.341,4.283,33.794H50l-5.316,0C45.29,27.914,47.608,14.5,48.967,7.573z M10.625,44.357
			c-0.535-0.617-0.774-1.134-0.655-1.416c0.156-0.372,0.971-0.539,1.293-0.557h31.985c-4.039,1.248-7.609,3.584-10.37,6.669
			C19.405,47.92,11.901,45.83,10.625,44.357z M26.95,68.681v7.946c0,0.282,0.008,0.563,0.021,0.844
			c0.005,0.106,0.012,0.211,0.019,0.316c0.011,0.168,0.023,0.336,0.038,0.504c0.012,0.133,0.025,0.266,0.04,0.399
			c0.014,0.127,0.031,0.254,0.048,0.381c0.081,0.608,0.191,1.205,0.329,1.793c0.009,0.039,0.017,0.078,0.027,0.117
			c0.048,0.199,0.101,0.397,0.156,0.594c0.015,0.053,0.03,0.106,0.045,0.158c0.006,0.02,0.011,0.039,0.017,0.059
			c-4.43-0.114-15.217-0.526-21.678-3.473V67.806C14.808,68.381,24.655,68.629,26.95,68.681z M6.011,83.958v-4.526
			c6.863,2.94,17.854,3.283,22.006,3.384c0.004,0.01,0.008,0.02,0.012,0.031c0.131,0.366,0.275,0.727,0.429,1.082
			c0.04,0.094,0.082,0.186,0.124,0.279c0.039,0.086,0.077,0.172,0.117,0.258c0.046,0.098,0.094,0.195,0.142,0.292
			c0.058,0.119,0.117,0.238,0.177,0.356c0.042,0.082,0.085,0.163,0.129,0.245c0.017,0.031,0.035,0.061,0.052,0.092
			c0.16,0.293,0.325,0.583,0.501,0.868c0.043,0.07,0.089,0.138,0.133,0.208c0.2,0.315,0.408,0.626,0.628,0.929
			c0.008,0.011,0.014,0.022,0.022,0.033c-0.126-0.002-0.257-0.005-0.393-0.008C24.951,87.382,13.01,87.152,6.011,83.958z
			 M54.791,93.982h-9.581c-6.227,0-11.694-3.339-14.726-8.33c-0.019-0.031-0.037-0.063-0.056-0.094
			c-0.111-0.185-0.218-0.373-0.322-0.563c-0.041-0.074-0.081-0.149-0.121-0.224c-0.076-0.144-0.149-0.289-0.222-0.435
			c-0.055-0.112-0.11-0.223-0.163-0.336c-0.049-0.104-0.094-0.209-0.141-0.313c-0.057-0.128-0.113-0.255-0.166-0.384
			c-0.018-0.045-0.037-0.089-0.055-0.134c-0.01-0.025-0.02-0.051-0.03-0.077c-0.064-0.161-0.126-0.322-0.186-0.485
			c-0.022-0.061-0.044-0.122-0.066-0.183c-0.23-0.653-0.422-1.32-0.573-1.997c-0.007-0.031-0.015-0.062-0.022-0.094
			c-0.042-0.193-0.079-0.387-0.115-0.582c-0.014-0.075-0.027-0.149-0.04-0.224c-0.029-0.17-0.055-0.341-0.078-0.513
			c-0.015-0.108-0.028-0.217-0.041-0.326c-0.018-0.148-0.035-0.296-0.048-0.445c-0.014-0.15-0.024-0.301-0.034-0.452
			c-0.008-0.115-0.017-0.229-0.022-0.344c-0.013-0.272-0.021-0.545-0.021-0.82v-8.443V64.56c0-5.599,2.077-10.715,5.49-14.622
			c0.008-0.008,0.019-0.011,0.027-0.02c2.868-3.273,6.59-5.591,10.672-6.73c0.035-0.002,0.07-0.006,0.104-0.016
			c3.853-1.046,7.637-1.046,11.491,0c0.031,0.008,0.062,0.01,0.094,0.013c4.086,1.139,7.812,3.457,10.682,6.733
			c0.008,0.009,0.019,0.012,0.027,0.02c3.414,3.907,5.49,9.024,5.49,14.622v3.623v8.443c0,0.275-0.008,0.548-0.021,0.82
			c-0.005,0.115-0.015,0.229-0.022,0.344c-0.01,0.151-0.02,0.302-0.034,0.452c-0.014,0.149-0.031,0.297-0.048,0.445
			c-0.013,0.109-0.026,0.218-0.041,0.326c-0.024,0.171-0.049,0.342-0.078,0.513c-0.013,0.075-0.026,0.15-0.04,0.224
			c-0.036,0.195-0.073,0.389-0.115,0.582c-0.007,0.031-0.015,0.062-0.022,0.094c-0.151,0.677-0.343,1.344-0.573,1.997
			c-0.022,0.061-0.044,0.122-0.066,0.183c-0.059,0.163-0.121,0.324-0.186,0.485c-0.01,0.026-0.02,0.051-0.03,0.077
			c-0.018,0.045-0.037,0.089-0.055,0.134c-0.053,0.129-0.11,0.257-0.166,0.384c-0.047,0.105-0.092,0.21-0.141,0.313
			c-0.053,0.113-0.108,0.224-0.163,0.336c-0.072,0.146-0.146,0.291-0.222,0.435c-0.04,0.075-0.08,0.149-0.121,0.224
			c-0.104,0.19-0.211,0.378-0.322,0.563c-0.019,0.031-0.037,0.063-0.056,0.094C66.484,90.644,61.018,93.982,54.791,93.982z
			 M93.989,83.958c-6.999,3.193-18.939,3.423-24.079,3.522c-0.136,0.003-0.267,0.005-0.393,0.008
			c0.008-0.011,0.014-0.022,0.022-0.033c0.22-0.303,0.427-0.613,0.627-0.928c0.044-0.07,0.09-0.138,0.134-0.209
			c0.175-0.285,0.341-0.575,0.5-0.868c0.017-0.031,0.035-0.061,0.052-0.092c0.044-0.081,0.086-0.163,0.129-0.245
			c0.061-0.118,0.119-0.237,0.177-0.356c0.048-0.097,0.096-0.194,0.142-0.292c0.04-0.085,0.079-0.171,0.117-0.257
			c0.042-0.093,0.084-0.186,0.124-0.28c0.153-0.355,0.297-0.715,0.429-1.081c0.004-0.01,0.008-0.02,0.012-0.031
			c4.152-0.101,15.143-0.444,22.006-3.384V83.958z"/>
	</g>
</g>
</svg>