<?xml version="1.0" encoding="utf-8"?>

<!-- Uploaded to: SVG Repo, www.svgrepo.com, Generator: SVG Repo Mixer Tools -->
<svg version="1.1" id="Layer_1" xmlns="http://www.w3.org/2000/svg" xmlns:xlink="http://www.w3.org/1999/xlink" 
	 viewBox="0 0 100 100" enable-background="new 0 0 100 100" xml:space="preserve">
<g>
	<path fill="#7C7FBD" d="M91.324,31.725H71.907c-1.211,0-2.305,0.67-2.919,1.714c-5.673,9.651-9.058,9.651-9.058,9.651H5.506
		c0,5.113,0,15.926,0,15.926s5.587,18.438,8.626,23.247c0.013,0.001,0.027,0.002,0.039,0.003l-0.039,0.057h60.587
		c1.132,0,19.594-31.691,19.594-47.27C94.313,33.264,93.113,31.725,91.324,31.725z"/>
	<polygon fill="#6AC9CC" points="17.64,16.938 17.64,43.09 35.885,43.09 35.885,26.117 43.14,21.314 43.14,16.938 	"/>
	<rect x="23.487" y="5.509" fill="#FEE36F" width="6.903" height="11.429"/>
	<path fill="#FFFFFF" d="M81.886,37.866h-2.022c-0.884,0-1.601,0.717-1.601,1.601v2.022c0,0.884,0.717,1.601,1.601,1.601h2.022
		c0.884,0,1.601-0.717,1.601-1.601v-2.022C83.487,38.583,82.77,37.866,81.886,37.866z"/>
	<path fill="#FEE36F" d="M83.329,67.791c1.391-2.749,2.812-5.724,4.152-8.775H5.506c0,0,1.215,4.009,2.819,8.775H83.329z"/>
	<g>
		<path fill="#136296" d="M74.719,82.828H14.132c-0.188,0-0.361-0.105-0.448-0.272c-0.022-0.042-0.038-0.087-0.047-0.132
			c-3.053-4.965-8.388-22.512-8.615-23.262C5.007,59.115,5,59.066,5,59.016V43.09c0-0.279,0.226-0.506,0.506-0.506H59.93
			c0.019-0.001,3.255-0.271,8.622-9.402c0.712-1.211,1.998-1.963,3.355-1.963h19.418c1.992,0,3.494,1.648,3.494,3.833
			c0,8.386-5.124,20.778-9.422,29.697c-2.875,5.965-5.433,10.476-6.702,12.635C75.493,82.828,75.027,82.828,74.719,82.828z
			 M14.451,81.817h60.132c1.969-1.811,19.224-31.753,19.224-46.765c0-1.609-1.068-2.822-2.483-2.822H71.907
			c-1,0-1.952,0.561-2.483,1.465c-5.656,9.623-9.118,9.901-9.494,9.901H6.011v15.345C6.39,60.184,11.555,77.018,14.451,81.817z"/>
	</g>
	<g>
		<path fill="#136296" d="M35.885,43.596H17.64c-0.279,0-0.506-0.226-0.506-0.506V16.938c0-0.279,0.226-0.506,0.506-0.506h25.5
			c0.279,0,0.506,0.226,0.506,0.506v4.376c0,0.17-0.085,0.328-0.226,0.422l-7.029,4.653V43.09
			C36.39,43.37,36.164,43.596,35.885,43.596z M18.146,42.585h17.233V26.117c0-0.17,0.085-0.328,0.226-0.422l7.029-4.653v-3.599
			H18.146V42.585z"/>
	</g>
	<g>
		<path fill="#136296" d="M30.391,17.443h-6.903c-0.279,0-0.506-0.226-0.506-0.506V5.509c0-0.279,0.226-0.506,0.506-0.506h6.903
			c0.279,0,0.506,0.226,0.506,0.506v11.429C30.896,17.217,30.67,17.443,30.391,17.443z M23.993,16.432h5.892V6.015h-5.892V16.432z"
			/>
	</g>
	<g>
		<path fill="#136296" d="M81.886,43.596h-2.022c-1.162,0-2.107-0.945-2.107-2.107v-2.022c0-1.161,0.945-2.106,2.107-2.106h2.022
			c1.162,0,2.107,0.945,2.107,2.106v2.022C83.992,42.651,83.047,43.596,81.886,43.596z M79.863,38.372
			c-0.604,0-1.095,0.491-1.095,1.095v2.022c0,0.604,0.491,1.096,1.095,1.096h2.022c0.604,0,1.095-0.492,1.095-1.096v-2.022
			c0-0.604-0.491-1.095-1.095-1.095H79.863z"/>
	</g>
	<g>
		<g>
			<path fill="#136296" d="M12.595,54.297c-0.279,0-0.506-0.226-0.506-0.506v-5.056c0-0.279,0.226-0.506,0.506-0.506
				s0.506,0.226,0.506,0.506v5.056C13.101,54.071,12.874,54.297,12.595,54.297z"/>
		</g>
		<g>
			<path fill="#136296" d="M19.684,54.297c-0.279,0-0.506-0.226-0.506-0.506v-5.056c0-0.279,0.226-0.506,0.506-0.506
				s0.506,0.226,0.506,0.506v5.056C20.19,54.071,19.963,54.297,19.684,54.297z"/>
		</g>
		<g>
			<path fill="#136296" d="M26.773,54.297c-0.279,0-0.506-0.226-0.506-0.506v-5.056c0-0.279,0.226-0.506,0.506-0.506
				c0.279,0,0.506,0.226,0.506,0.506v5.056C27.279,54.071,27.052,54.297,26.773,54.297z"/>
		</g>
		<g>
			<path fill="#136296" d="M33.862,54.297c-0.279,0-0.506-0.226-0.506-0.506v-5.056c0-0.279,0.226-0.506,0.506-0.506
				s0.506,0.226,0.506,0.506v5.056C34.368,54.071,34.142,54.297,33.862,54.297z"/>
		</g>
		<g>
			<path fill="#136296" d="M40.951,54.297c-0.279,0-0.506-0.226-0.506-0.506v-5.056c0-0.279,0.226-0.506,0.506-0.506
				c0.279,0,0.506,0.226,0.506,0.506v5.056C41.457,54.071,41.231,54.297,40.951,54.297z"/>
		</g>
		<g>
			<path fill="#136296" d="M48.041,54.297c-0.279,0-0.506-0.226-0.506-0.506v-5.056c0-0.279,0.226-0.506,0.506-0.506
				c0.279,0,0.506,0.226,0.506,0.506v5.056C48.546,54.071,48.32,54.297,48.041,54.297z"/>
		</g>
		<g>
			<path fill="#136296" d="M55.13,54.297c-0.279,0-0.506-0.226-0.506-0.506v-5.056c0-0.279,0.226-0.506,0.506-0.506
				c0.279,0,0.506,0.226,0.506,0.506v5.056C55.636,54.071,55.409,54.297,55.13,54.297z"/>
		</g>
		<g>
			<path fill="#136296" d="M62.219,54.297c-0.279,0-0.506-0.226-0.506-0.506v-5.056c0-0.279,0.226-0.506,0.506-0.506
				c0.279,0,0.506,0.226,0.506,0.506v5.056C62.725,54.071,62.498,54.297,62.219,54.297z"/>
		</g>
		<g>
			<path fill="#136296" d="M69.308,54.297c-0.279,0-0.506-0.226-0.506-0.506v-5.056c0-0.279,0.226-0.506,0.506-0.506
				c0.279,0,0.506,0.226,0.506,0.506v5.056C69.814,54.071,69.588,54.297,69.308,54.297z"/>
		</g>
		<g>
			<path fill="#136296" d="M76.398,54.297c-0.279,0-0.506-0.226-0.506-0.506v-5.056c0-0.279,0.226-0.506,0.506-0.506
				c0.279,0,0.506,0.226,0.506,0.506v5.056C76.903,54.071,76.677,54.297,76.398,54.297z"/>
		</g>
		<g>
			<path fill="#136296" d="M83.487,54.297c-0.279,0-0.506-0.226-0.506-0.506v-5.056c0-0.279,0.226-0.506,0.506-0.506
				c0.279,0,0.506,0.226,0.506,0.506v5.056C83.992,54.071,83.766,54.297,83.487,54.297z"/>
		</g>
	</g>
	<g>
		<path fill="#FFFFFF" d="M23.487,25.564c-0.279,0-0.506-0.226-0.506-0.506v-3.96c0-0.279,0.226-0.506,0.506-0.506h3.286
			c0.279,0,0.506,0.226,0.506,0.506c0,0.279-0.226,0.506-0.506,0.506h-2.78v3.455C23.993,25.337,23.767,25.564,23.487,25.564z"/>
	</g>
	<g>
		<path fill="#136296" d="M94.494,82.799H5.506C5.226,82.799,5,82.572,5,82.293s0.226-0.506,0.506-0.506h88.989
			c0.279,0,0.506,0.226,0.506,0.506S94.774,82.799,94.494,82.799z"/>
	</g>
	<g>
		<g>
			<path fill="#136296" d="M7.275,86.486h-1.77C5.226,86.486,5,86.259,5,85.98c0-0.279,0.226-0.506,0.506-0.506h1.77
				c0.279,0,0.506,0.226,0.506,0.506C7.781,86.259,7.555,86.486,7.275,86.486z"/>
		</g>
		<g>
			<path fill="#136296" d="M89.307,86.486h-3.418c-0.279,0-0.506-0.226-0.506-0.506c0-0.279,0.226-0.506,0.506-0.506h3.418
				c0.279,0,0.506,0.226,0.506,0.506C89.812,86.259,89.586,86.486,89.307,86.486z M82.471,86.486h-3.418
				c-0.279,0-0.506-0.226-0.506-0.506c0-0.279,0.226-0.506,0.506-0.506h3.418c0.279,0,0.506,0.226,0.506,0.506
				C82.976,86.259,82.75,86.486,82.471,86.486z M75.635,86.486h-3.418c-0.279,0-0.506-0.226-0.506-0.506
				c0-0.279,0.226-0.506,0.506-0.506h3.418c0.279,0,0.506,0.226,0.506,0.506C76.14,86.259,75.914,86.486,75.635,86.486z
				 M68.799,86.486h-3.418c-0.279,0-0.506-0.226-0.506-0.506c0-0.279,0.226-0.506,0.506-0.506h3.418
				c0.279,0,0.506,0.226,0.506,0.506C69.304,86.259,69.078,86.486,68.799,86.486z M61.963,86.486h-3.418
				c-0.279,0-0.506-0.226-0.506-0.506c0-0.279,0.226-0.506,0.506-0.506h3.418c0.279,0,0.506,0.226,0.506,0.506
				C62.468,86.259,62.242,86.486,61.963,86.486z M55.127,86.486h-3.418c-0.279,0-0.506-0.226-0.506-0.506
				c0-0.279,0.226-0.506,0.506-0.506h3.418c0.279,0,0.506,0.226,0.506,0.506C55.632,86.259,55.406,86.486,55.127,86.486z
				 M48.291,86.486h-3.418c-0.279,0-0.506-0.226-0.506-0.506c0-0.279,0.226-0.506,0.506-0.506h3.418
				c0.279,0,0.506,0.226,0.506,0.506C48.796,86.259,48.57,86.486,48.291,86.486z M41.455,86.486h-3.418
				c-0.279,0-0.506-0.226-0.506-0.506c0-0.279,0.226-0.506,0.506-0.506h3.418c0.279,0,0.506,0.226,0.506,0.506
				C41.96,86.259,41.734,86.486,41.455,86.486z M34.619,86.486h-3.418c-0.279,0-0.506-0.226-0.506-0.506
				c0-0.279,0.226-0.506,0.506-0.506h3.418c0.279,0,0.506,0.226,0.506,0.506C35.125,86.259,34.898,86.486,34.619,86.486z
				 M27.783,86.486h-3.418c-0.279,0-0.506-0.226-0.506-0.506c0-0.279,0.226-0.506,0.506-0.506h3.418
				c0.279,0,0.506,0.226,0.506,0.506C28.289,86.259,28.062,86.486,27.783,86.486z M20.947,86.486h-3.418
				c-0.279,0-0.506-0.226-0.506-0.506c0-0.279,0.226-0.506,0.506-0.506h3.418c0.279,0,0.506,0.226,0.506,0.506
				C21.453,86.259,21.226,86.486,20.947,86.486z M14.111,86.486h-3.418c-0.279,0-0.506-0.226-0.506-0.506
				c0-0.279,0.226-0.506,0.506-0.506h3.418c0.279,0,0.506,0.226,0.506,0.506C14.617,86.259,14.39,86.486,14.111,86.486z"/>
		</g>
		<g>
			<path fill="#136296" d="M94.494,86.486h-1.77c-0.279,0-0.506-0.226-0.506-0.506c0-0.279,0.226-0.506,0.506-0.506h1.77
				c0.279,0,0.506,0.226,0.506,0.506C95,86.259,94.774,86.486,94.494,86.486z"/>
		</g>
	</g>
	<g>
		<g>
			<path fill="#136296" d="M8.034,90.865H5.506C5.226,90.865,5,90.638,5,90.359c0-0.279,0.226-0.506,0.506-0.506h2.528
				c0.279,0,0.506,0.226,0.506,0.506C8.539,90.638,8.313,90.865,8.034,90.865z"/>
		</g>
		<g>
			<path fill="#136296" d="M87.029,90.865h-4.937c-0.279,0-0.506-0.226-0.506-0.506c0-0.279,0.226-0.506,0.506-0.506h4.937
				c0.279,0,0.506,0.226,0.506,0.506C87.535,90.638,87.308,90.865,87.029,90.865z M77.155,90.865h-4.937
				c-0.279,0-0.506-0.226-0.506-0.506c0-0.279,0.226-0.506,0.506-0.506h4.937c0.279,0,0.506,0.226,0.506,0.506
				C77.66,90.638,77.434,90.865,77.155,90.865z M67.28,90.865h-4.937c-0.279,0-0.506-0.226-0.506-0.506
				c0-0.279,0.226-0.506,0.506-0.506h4.937c0.279,0,0.506,0.226,0.506,0.506C67.786,90.638,67.559,90.865,67.28,90.865z
				 M57.406,90.865h-4.937c-0.279,0-0.506-0.226-0.506-0.506c0-0.279,0.226-0.506,0.506-0.506h4.937
				c0.279,0,0.506,0.226,0.506,0.506C57.911,90.638,57.685,90.865,57.406,90.865z M47.531,90.865h-4.937
				c-0.279,0-0.506-0.226-0.506-0.506c0-0.279,0.226-0.506,0.506-0.506h4.937c0.279,0,0.506,0.226,0.506,0.506
				C48.037,90.638,47.811,90.865,47.531,90.865z M37.657,90.865H32.72c-0.279,0-0.506-0.226-0.506-0.506
				c0-0.279,0.226-0.506,0.506-0.506h4.937c0.279,0,0.506,0.226,0.506,0.506C38.163,90.638,37.936,90.865,37.657,90.865z
				 M27.782,90.865h-4.937c-0.279,0-0.506-0.226-0.506-0.506c0-0.279,0.226-0.506,0.506-0.506h4.937
				c0.279,0,0.506,0.226,0.506,0.506C28.288,90.638,28.062,90.865,27.782,90.865z M17.908,90.865h-4.937
				c-0.279,0-0.506-0.226-0.506-0.506c0-0.279,0.226-0.506,0.506-0.506h4.937c0.279,0,0.506,0.226,0.506,0.506
				C18.414,90.638,18.187,90.865,17.908,90.865z"/>
		</g>
		<g>
			<path fill="#136296" d="M94.494,90.865h-2.528c-0.279,0-0.506-0.226-0.506-0.506c0-0.279,0.226-0.506,0.506-0.506h2.528
				c0.279,0,0.506,0.226,0.506,0.506C95,90.638,94.774,90.865,94.494,90.865z"/>
		</g>
	</g>
	<g>
		<g>
			<path fill="#136296" d="M7.275,94.997h-1.77C5.226,94.997,5,94.77,5,94.491s0.226-0.506,0.506-0.506h1.77
				c0.279,0,0.506,0.226,0.506,0.506S7.555,94.997,7.275,94.997z"/>
		</g>
		<g>
			<path fill="#136296" d="M89.307,94.997h-3.418c-0.279,0-0.506-0.226-0.506-0.506s0.226-0.506,0.506-0.506h3.418
				c0.279,0,0.506,0.226,0.506,0.506S89.586,94.997,89.307,94.997z M82.471,94.997h-3.418c-0.279,0-0.506-0.226-0.506-0.506
				s0.226-0.506,0.506-0.506h3.418c0.279,0,0.506,0.226,0.506,0.506S82.75,94.997,82.471,94.997z M75.635,94.997h-3.418
				c-0.279,0-0.506-0.226-0.506-0.506s0.226-0.506,0.506-0.506h3.418c0.279,0,0.506,0.226,0.506,0.506S75.914,94.997,75.635,94.997z
				 M68.799,94.997h-3.418c-0.279,0-0.506-0.226-0.506-0.506s0.226-0.506,0.506-0.506h3.418c0.279,0,0.506,0.226,0.506,0.506
				S69.078,94.997,68.799,94.997z M61.963,94.997h-3.418c-0.279,0-0.506-0.226-0.506-0.506s0.226-0.506,0.506-0.506h3.418
				c0.279,0,0.506,0.226,0.506,0.506S62.242,94.997,61.963,94.997z M55.127,94.997h-3.418c-0.279,0-0.506-0.226-0.506-0.506
				s0.226-0.506,0.506-0.506h3.418c0.279,0,0.506,0.226,0.506,0.506S55.406,94.997,55.127,94.997z M48.291,94.997h-3.418
				c-0.279,0-0.506-0.226-0.506-0.506s0.226-0.506,0.506-0.506h3.418c0.279,0,0.506,0.226,0.506,0.506S48.57,94.997,48.291,94.997z
				 M41.455,94.997h-3.418c-0.279,0-0.506-0.226-0.506-0.506s0.226-0.506,0.506-0.506h3.418c0.279,0,0.506,0.226,0.506,0.506
				S41.734,94.997,41.455,94.997z M34.619,94.997h-3.418c-0.279,0-0.506-0.226-0.506-0.506s0.226-0.506,0.506-0.506h3.418
				c0.279,0,0.506,0.226,0.506,0.506S34.898,94.997,34.619,94.997z M27.783,94.997h-3.418c-0.279,0-0.506-0.226-0.506-0.506
				s0.226-0.506,0.506-0.506h3.418c0.279,0,0.506,0.226,0.506,0.506S28.062,94.997,27.783,94.997z M20.947,94.997h-3.418
				c-0.279,0-0.506-0.226-0.506-0.506s0.226-0.506,0.506-0.506h3.418c0.279,0,0.506,0.226,0.506,0.506S21.226,94.997,20.947,94.997z
				 M14.111,94.997h-3.418c-0.279,0-0.506-0.226-0.506-0.506s0.226-0.506,0.506-0.506h3.418c0.279,0,0.506,0.226,0.506,0.506
				S14.39,94.997,14.111,94.997z"/>
		</g>
		<g>
			<path fill="#136296" d="M94.494,94.997h-1.77c-0.279,0-0.506-0.226-0.506-0.506s0.226-0.506,0.506-0.506h1.77
				c0.279,0,0.506,0.226,0.506,0.506S94.774,94.997,94.494,94.997z"/>
		</g>
	</g>
	<g>
		<path fill="#136296" d="M83.33,68.296H8.325c-0.217,0-0.41-0.138-0.479-0.344c-1.589-4.719-2.812-8.749-2.824-8.789
			c-0.046-0.153-0.018-0.319,0.078-0.448c0.095-0.129,0.246-0.204,0.406-0.204h81.976c0.171,0,0.33,0.086,0.423,0.229
			c0.093,0.143,0.108,0.323,0.039,0.48c-1.256,2.86-2.657,5.821-4.164,8.799C83.695,68.189,83.52,68.296,83.33,68.296z
			 M8.688,67.285h74.33c1.322-2.623,2.56-5.23,3.687-7.763H6.189C6.585,60.806,7.532,63.836,8.688,67.285z"/>
	</g>
	<g>
		<g>
			<path fill="#136296" d="M12.818,63.909h-1.77c-0.279,0-0.506-0.226-0.506-0.506c0-0.279,0.226-0.506,0.506-0.506h1.77
				c0.279,0,0.506,0.226,0.506,0.506C13.323,63.683,13.097,63.909,12.818,63.909z"/>
		</g>
		<g>
			<path fill="#136296" d="M76.625,63.909H73.08c-0.279,0-0.506-0.226-0.506-0.506c0-0.279,0.226-0.506,0.506-0.506h3.545
				c0.279,0,0.506,0.226,0.506,0.506C77.131,63.683,76.904,63.909,76.625,63.909z M69.535,63.909H65.99
				c-0.279,0-0.506-0.226-0.506-0.506c0-0.279,0.226-0.506,0.506-0.506h3.545c0.279,0,0.506,0.226,0.506,0.506
				C70.041,63.683,69.815,63.909,69.535,63.909z M62.446,63.909h-3.545c-0.279,0-0.506-0.226-0.506-0.506
				c0-0.279,0.226-0.506,0.506-0.506h3.545c0.279,0,0.506,0.226,0.506,0.506C62.951,63.683,62.725,63.909,62.446,63.909z
				 M55.356,63.909h-3.545c-0.279,0-0.506-0.226-0.506-0.506c0-0.279,0.226-0.506,0.506-0.506h3.545
				c0.279,0,0.506,0.226,0.506,0.506C55.862,63.683,55.635,63.909,55.356,63.909z M48.266,63.909h-3.545
				c-0.279,0-0.506-0.226-0.506-0.506c0-0.279,0.226-0.506,0.506-0.506h3.545c0.279,0,0.506,0.226,0.506,0.506
				C48.772,63.683,48.545,63.909,48.266,63.909z M41.176,63.909h-3.545c-0.279,0-0.506-0.226-0.506-0.506
				c0-0.279,0.226-0.506,0.506-0.506h3.545c0.279,0,0.506,0.226,0.506,0.506C41.682,63.683,41.456,63.909,41.176,63.909z
				 M34.087,63.909h-3.545c-0.279,0-0.506-0.226-0.506-0.506c0-0.279,0.226-0.506,0.506-0.506h3.545
				c0.279,0,0.506,0.226,0.506,0.506C34.592,63.683,34.366,63.909,34.087,63.909z M26.997,63.909h-3.545
				c-0.279,0-0.506-0.226-0.506-0.506c0-0.279,0.226-0.506,0.506-0.506h3.545c0.279,0,0.506,0.226,0.506,0.506
				C27.502,63.683,27.276,63.909,26.997,63.909z M19.907,63.909h-3.545c-0.279,0-0.506-0.226-0.506-0.506
				c0-0.279,0.226-0.506,0.506-0.506h3.545c0.279,0,0.506,0.226,0.506,0.506C20.413,63.683,20.186,63.909,19.907,63.909z"/>
		</g>
		<g>
			<path fill="#136296" d="M81.94,63.909h-1.77c-0.279,0-0.506-0.226-0.506-0.506c0-0.279,0.226-0.506,0.506-0.506h1.77
				c0.279,0,0.506,0.226,0.506,0.506C82.445,63.683,82.219,63.909,81.94,63.909z"/>
		</g>
	</g>
</g>
</svg>